# xmcd CD database file
#
# Track frame offsets:
#	182
#	3825
#	24415
#	43782
#	64135
#	87270
#	108010
#	127195
#	145765
#	166580
#
# Disc length: 2481 seconds
#
# Revision: 4
# Processed by: cddbd v1.5.2PL0 Copyright (c) Steve Scherf et al.
# Submitted via: CDex 1.51
#
DISCID=7509af0a
DTITLE=Jamey Aebersold - Volume 06 - Charlie Parker 'All Bird'
DYEAR=1976
DGENRE=Jazz
TTITLE0=Tuning Notes
TTITLE1=Now's the Time and Billie's Bounce
TTITLE2=Yardbird Suite
TTITLE3=Confirmation
TTITLE4=Dewey Square
TTITLE5=Donna Lee
TTITLE6=My Little Suede Shoes
TTITLE7=Ornithology
TTITLE8=Scrapple from the Apple
TTITLE9=Thriving from a Riff
EXTD=YEAR: 1976
EXTT0=
EXTT1=
EXTT2=
EXTT3=
EXTT4=
EXTT5=
EXTT6=
EXTT7=
EXTT8=
EXTT9=
PLAYORDER=
